# xmcd
#
# Track frame offsets: 
#        150
#        13708
#        34633
#        53276
#        71945
#        87369
#        100275
#        111957
#        134429
#        151867
#        169704
#        196268
#        213501
#        244557
#        246144
#        257278
#        286662
#
# Disc length: 3970 seconds
#
# Revision: 0
# Processed by: cddbd v1.5.2PL0 Copyright (c) Steve Scherf et al.
# Submitted via: ExactAudioCopy v1.0b4
#
DISCID=dd0f8011
DTITLE=Chris Ruest Band - Live At Shakespeare's
DYEAR=2014
DGENRE=Blues
TTITLE0=Cuban Getaway
TTITLE1=Mean Ole Frisco
TTITLE2=Sleepin' In The Ground
TTITLE3=Cry For Me
TTITLE4=Bark
TTITLE5=You Suck
TTITLE6=Can't Stop Lovin' My Baby Tonite
TTITLE7=Champagne N' Reefer
TTITLE8=Funnybone
TTITLE9=Don't Say A Word
TTITLE10=Out Of Bad Luck
TTITLE11=My Baby Loves Me
TTITLE12=Sad Lonesome Day
TTITLE13=Band Intro
TTITLE14=Strychnine
TTITLE15=Poor Lil' Greta
TTITLE16=The Freeze
EXTD=
EXTT0=
EXTT1=
EXTT2=
EXTT3=
EXTT4=
EXTT5=
EXTT6=
EXTT7=
EXTT8=
EXTT9=
EXTT10=
EXTT11=
EXTT12=
EXTT13=
EXTT14=
EXTT15=
EXTT16=
PLAYORDER=
